<svg width="30" height="31" viewBox="0 0 30 31" xmlns="http://www.w3.org/2000/svg">
  <path d="M28.1482 2.51438e-05L5.86836 0.12835C5.45 0.13076 5.04974 0.299263 4.75562 0.596789C4.4615 0.894315 4.29762 1.29649 4.30003 1.71485C4.30244 2.13321 4.47094 2.53347 4.76847 2.82759C5.066 3.12171 5.46818 3.28559 5.88653 3.28318L24.3632 3.17453L0.455055 27.3597C0.161308 27.6568 -0.00236765 28.0585 3.89212e-05 28.4763C0.00244549 28.8942 0.170737 29.2939 0.467888 29.5877C0.765039 29.8814 1.16671 30.0451 1.58454 30.0427C2.00237 30.0403 2.40213 29.872 2.69587 29.5748L26.604 5.38968L26.7082 23.8664C26.7106 24.2847 26.8791 24.685 27.1767 24.9791C27.4742 25.2732 27.8764 25.4371 28.2947 25.4347C28.7131 25.4323 29.1133 25.2638 29.4075 24.9663C29.7016 24.6687 29.8655 24.2666 29.863 23.8482L29.7347 1.56835C29.7338 1.36113 29.692 1.15612 29.6117 0.965081C29.5314 0.774038 29.4142 0.600713 29.2669 0.455028C29.1195 0.309343 28.9448 0.194164 28.7529 0.116087C28.5609 0.0380106 28.3554 -0.00143031 28.1482 2.51438e-05Z" />
</svg>
