<svg width="24" height="25" viewBox="0 0 24 25" xmlns="http://www.w3.org/2000/svg">
  <path d="M23.6546 11.6955L11.8966 0.333212C11.6758 0.119858 11.3764 0 11.0641 0C10.7519 0 10.4525 0.119858 10.2317 0.333212C10.0109 0.546566 9.88686 0.835938 9.88686 1.13767C9.88686 1.4394 10.0109 1.72877 10.2317 1.94212L19.9837 11.3638L1.1758 11.3638C0.863956 11.3638 0.564886 11.4835 0.344381 11.6966C0.123877 11.9096 0 12.1987 0 12.5C0 12.8013 0.123877 13.0904 0.344381 13.3034C0.564886 13.5165 0.863956 13.6362 1.1758 13.6362L19.9837 13.6362L10.2317 23.0579C10.0109 23.2712 9.88686 23.5606 9.88686 23.8623C9.88686 24.1641 10.0109 24.4534 10.2317 24.6668C10.4525 24.8801 10.7519 25 11.0641 25C11.3764 25 11.6758 24.8801 11.8966 24.6668L23.6546 13.3045C23.7641 13.1989 23.8509 13.0735 23.9102 12.9355C23.9695 12.7974 24 12.6495 24 12.5C24 12.3505 23.9695 12.2026 23.9102 12.0645C23.8509 11.9265 23.7641 11.8011 23.6546 11.6955Z" />
</svg>
