<svg width="55" height="46" viewBox="0 0 55 46" xmlns="http://www.w3.org/2000/svg">
  <path d="M53.694 21.4985L32.8079 0.612389C32.4157 0.220203 31.8838 -0.000125885 31.3292 -0.000125885C30.7745 -0.000125885 30.2426 0.220203 29.8504 0.612389C29.4582 1.00457 29.2379 1.53649 29.2379 2.09113C29.2379 2.64576 29.4582 3.17768 29.8504 3.56986L47.1734 20.8886L2.08861 20.8886C1.53468 20.8886 1.00343 21.1087 0.61174 21.5004C0.220051 21.892 0 22.4233 0 22.9772C0 23.5312 0.220051 24.0624 0.61174 24.4541C1.00343 24.8458 1.53468 25.0658 2.08861 25.0658L47.1734 25.0658L29.8504 42.3846C29.4582 42.7768 29.2379 43.3087 29.2379 43.8633C29.2379 44.418 29.4582 44.9499 29.8504 45.3421C30.2426 45.7343 30.7745 45.9546 31.3292 45.9546C31.8838 45.9546 32.4157 45.7343 32.8079 45.3421L53.694 24.456C53.8885 24.262 54.0428 24.0315 54.1481 23.7777C54.2534 23.524 54.3076 23.252 54.3076 22.9772C54.3076 22.7025 54.2534 22.4305 54.1481 22.1767C54.0428 21.923 53.8885 21.6925 53.694 21.4985Z" />
</svg>
