<svg width="55" height="46" viewBox="0 0 55 46" xmlns="http://www.w3.org/2000/svg">
  <path d="M0.613607 21.4985L21.4997 0.612389C21.8919 0.220203 22.4238 -0.000125885 22.9785 -0.000125885C23.5331 -0.000125885 24.065 0.220203 24.4572 0.612389C24.8494 1.00457 25.0697 1.53649 25.0697 2.09113C25.0697 2.64576 24.8494 3.17768 24.4572 3.56986L7.13425 20.8886L52.219 20.8886C52.7729 20.8886 53.3042 21.1087 53.6959 21.5004C54.0876 21.892 54.3076 22.4233 54.3076 22.9772C54.3076 23.5312 54.0876 24.0624 53.6959 24.4541C53.3042 24.8458 52.7729 25.0658 52.219 25.0658L7.13425 25.0658L24.4572 42.3846C24.8494 42.7768 25.0697 43.3087 25.0697 43.8633C25.0697 44.418 24.8494 44.9499 24.4572 45.3421C24.065 45.7343 23.5331 45.9546 22.9785 45.9546C22.4238 45.9546 21.8919 45.7343 21.4997 45.3421L0.613607 24.456C0.419102 24.262 0.264783 24.0315 0.15949 23.7777C0.0541969 23.524 0 23.252 0 22.9772C0 22.7025 0.0541969 22.4305 0.15949 22.1767C0.264783 21.923 0.419102 21.6925 0.613607 21.4985Z" />
</svg>
