<svg width="17" height="17" viewBox="0 0 17 17" xmlns="http://www.w3.org/2000/svg">
  <path d="M7.18868 16.2154C8.0412 16.3571 8.9112 16.3577 9.7639 16.2171M7.18868 16.2154C5.3575 15.9097 3.69325 14.9644 2.49352 13.5476C1.29378 12.1308 0.635493 10.3344 0.635742 8.47789C0.636051 6.98157 1.06437 5.51656 1.87014 4.25572C2.67592 2.99489 3.82554 1.99085 5.18334 1.36209C6.54115 0.733318 8.05047 0.50606 9.53323 0.707126C11.016 0.908193 12.4103 1.52919 13.5516 2.49685C14.6929 3.46451 15.5336 4.73845 15.9745 6.16833C16.4154 7.59822 16.4381 9.12439 16.04 10.5668C15.6418 12.0091 14.8393 13.3075 13.7273 14.3087C12.6152 15.3098 11.24 15.972 9.7639 16.2171M7.18868 16.2154L7.18784 11.9714H5.57928C5.44435 11.9714 5.31494 11.9178 5.21953 11.8224C5.12411 11.727 5.07051 11.5976 5.07051 11.4627V9.90414C5.07051 9.76921 5.12411 9.6398 5.21953 9.54439C5.31494 9.44897 5.44435 9.39537 5.57928 9.39537H7.18784V6.7396C7.18784 6.06493 7.45585 5.41789 7.93291 4.94083C8.40997 4.46377 9.05701 4.19575 9.73168 4.19575H11.2665C11.4914 4.19575 11.707 4.28509 11.8661 4.44411C12.0251 4.60313 12.1144 4.81881 12.1144 5.0437V5.92557C12.1144 6.15046 12.0251 6.36614 11.8661 6.52516C11.707 6.68418 11.4914 6.77352 11.2665 6.77352H10.6119C10.387 6.77352 10.1713 6.86285 10.0123 7.02187C9.85324 7.1809 9.7639 7.39657 9.7639 7.62146V9.39537H11.7116C11.7855 9.39536 11.8584 9.41143 11.9255 9.44246C11.9925 9.47349 12.0519 9.51874 12.0997 9.57506C12.1475 9.63138 12.1824 9.69742 12.2021 9.7686C12.2217 9.83977 12.2257 9.91438 12.2136 9.98724L12.0016 11.2626C11.9687 11.4605 11.8666 11.6405 11.7135 11.7703C11.5604 11.9001 11.3663 11.9713 11.1656 11.9714H9.7639V16.2171" stroke="#0095FF" stroke-width="1.27192" stroke-linecap="round"/>
</svg>
