<svg width="15" height="15" viewBox="0 0 15 15" xmlns="http://www.w3.org/2000/svg">
  <path d="M11.193 2.52462C11.0198 2.52462 10.8505 2.57597 10.7065 2.67219C10.5625 2.7684 10.4503 2.90514 10.384 3.06514C10.3178 3.22513 10.3004 3.40118 10.3342 3.57103C10.368 3.74088 10.4514 3.8969 10.5738 4.01935C10.6963 4.1418 10.8523 4.22519 11.0222 4.25898C11.192 4.29276 11.3681 4.27542 11.528 4.20915C11.688 4.14288 11.8248 4.03066 11.921 3.88666C12.0172 3.74267 12.0686 3.57339 12.0686 3.40021C12.0686 3.16799 11.9763 2.94528 11.8121 2.78108C11.6479 2.61687 11.4252 2.52462 11.193 2.52462ZM14.5494 4.2904C14.5351 3.68501 14.4217 3.08606 14.2138 2.51732C14.0291 2.03031 13.7402 1.58953 13.3674 1.22583C13.006 0.851823 12.5644 0.564885 12.0759 0.386719C11.5087 0.172317 10.909 0.056337 10.3028 0.0437795C9.52935 -4.07729e-08 9.28127 0 7.29659 0C5.31192 0 5.06384 -4.07729e-08 4.2904 0.0437795C3.68416 0.056337 3.08452 0.172317 2.51732 0.386719C2.0299 0.56713 1.58873 0.853762 1.22583 1.22583C0.851823 1.58714 0.564885 2.02877 0.386719 2.51732C0.172317 3.08452 0.056337 3.68416 0.0437795 4.2904C-4.07729e-08 5.06384 0 5.31192 0 7.29659C0 9.28127 -4.07729e-08 9.52935 0.0437795 10.3028C0.056337 10.909 0.172317 11.5087 0.386719 12.0759C0.564885 12.5644 0.851823 13.006 1.22583 13.3674C1.58873 13.7394 2.0299 14.0261 2.51732 14.2065C3.08452 14.4209 3.68416 14.5368 4.2904 14.5494C5.06384 14.5932 5.31192 14.5932 7.29659 14.5932C9.28127 14.5932 9.52935 14.5932 10.3028 14.5494C10.909 14.5368 11.5087 14.4209 12.0759 14.2065C12.5644 14.0283 13.006 13.7414 13.3674 13.3674C13.7411 13.0044 14.0301 12.5634 14.2138 12.0759C14.4217 11.5071 14.5351 10.9082 14.5494 10.3028C14.5494 9.52935 14.5932 9.28127 14.5932 7.29659C14.5932 5.31192 14.5932 5.06384 14.5494 4.2904ZM13.236 10.2152C13.2308 10.6784 13.147 11.1373 12.9879 11.5724C12.8714 11.8899 12.6843 12.1769 12.4407 12.4115C12.2039 12.6525 11.9176 12.8392 11.6016 12.9587C11.1665 13.1178 10.7076 13.2017 10.2444 13.2068C9.51476 13.2433 9.24478 13.2506 7.32578 13.2506C5.40678 13.2506 5.1368 13.2506 4.40714 13.2068C3.92619 13.2163 3.44724 13.1422 2.9916 12.9879C2.68966 12.8619 2.41656 12.6757 2.18898 12.4407C1.9468 12.2063 1.76201 11.9191 1.64903 11.6016C1.4703 11.1604 1.37147 10.691 1.35717 10.2152C1.35717 9.48557 1.31339 9.2156 1.31339 7.29659C1.31339 5.37759 1.31339 5.10762 1.35717 4.37796C1.35983 3.90439 1.44629 3.43503 1.61255 2.9916C1.741 2.68362 1.93817 2.40909 2.18898 2.18898C2.41001 1.93738 2.68415 1.73801 2.9916 1.60525C3.43626 1.44434 3.9051 1.36045 4.37796 1.35717C5.10762 1.35717 5.37759 1.31339 7.29659 1.31339C9.2156 1.31339 9.48557 1.31339 10.2152 1.35717C10.6784 1.36234 11.1373 1.44623 11.5724 1.60525C11.904 1.72831 12.2016 1.92838 12.4407 2.18898C12.6791 2.41373 12.8658 2.68759 12.9879 2.9916C13.1502 3.43588 13.2342 3.90496 13.236 4.37796C13.2725 5.10762 13.2798 5.37759 13.2798 7.29659C13.2798 9.2156 13.2725 9.48557 13.236 10.2152ZM7.29659 3.55344C6.55658 3.55488 5.8336 3.77564 5.219 4.18782C4.6044 4.6 4.12577 5.1851 3.84358 5.8692C3.56139 6.5533 3.4883 7.30569 3.63355 8.03131C3.77881 8.75693 4.13588 9.42321 4.65966 9.94597C5.18344 10.4687 5.85042 10.8245 6.57632 10.9683C7.30222 11.1122 8.05447 11.0376 8.73801 10.7541C9.42156 10.4706 10.0057 9.99082 10.4167 9.37542C10.8277 8.76002 11.047 8.03661 11.047 7.29659C11.048 6.80415 10.9516 6.31637 10.7634 5.86132C10.5752 5.40627 10.2988 4.99292 9.95027 4.64505C9.60172 4.29718 9.18783 4.02165 8.73241 3.83431C8.277 3.64697 7.78903 3.55152 7.29659 3.55344ZM7.29659 9.72636C6.81603 9.72636 6.34626 9.58386 5.94669 9.31687C5.54711 9.04988 5.23569 8.67041 5.05178 8.22642C4.86788 7.78244 4.81976 7.2939 4.91351 6.82257C5.00727 6.35124 5.23868 5.9183 5.57849 5.57849C5.9183 5.23868 6.35124 5.00727 6.82257 4.91351C7.2939 4.81976 7.78244 4.86788 8.22642 5.05178C8.67041 5.23569 9.04988 5.54711 9.31687 5.94669C9.58386 6.34626 9.72636 6.81603 9.72636 7.29659C9.72636 7.61567 9.66351 7.93163 9.5414 8.22642C9.4193 8.52122 9.24032 8.78907 9.0147 9.0147C8.78907 9.24032 8.52122 9.4193 8.22642 9.5414C7.93163 9.66351 7.61567 9.72636 7.29659 9.72636Z" />
</svg>
