<svg width="16" height="16" viewBox="0 0 16 16" xmlns="http://www.w3.org/2000/svg">
  <path d="M15.0241 10.9056L11.1847 9.18757C11.0359 9.12316 10.8733 9.09686 10.7118 9.11105C10.5502 9.12525 10.3947 9.17949 10.2594 9.26888C10.2486 9.27574 10.2383 9.28335 10.2285 9.29164L8.21209 11.0105C8.16722 11.0379 8.11629 11.0537 8.06381 11.0567C8.01134 11.0597 7.95894 11.0497 7.91125 11.0276C6.59082 10.3901 5.22403 9.0339 4.58658 7.72891C4.56403 7.68159 4.55356 7.62942 4.55612 7.57706C4.55867 7.5247 4.57417 7.47379 4.60121 7.42889L6.32494 5.37912C6.33307 5.36937 6.34039 5.3588 6.34771 5.34823C6.43681 5.21309 6.4909 5.05792 6.50509 4.89668C6.51929 4.73543 6.49314 4.57319 6.42901 4.42457L4.70773 0.591734C4.62463 0.397609 4.4808 0.235682 4.29783 0.13027C4.11486 0.0248569 3.90263 -0.0183515 3.69301 0.00713278C2.66981 0.142038 1.7307 0.644798 1.0511 1.42151C0.371495 2.19822 -0.00213022 3.19576 9.13672e-06 4.22781C9.13672e-06 10.5048 5.10614 15.6109 11.3831 15.6109C12.4151 15.613 13.4127 15.2394 14.1894 14.5598C14.9661 13.8802 15.4689 12.9411 15.6038 11.9179C15.6291 11.7092 15.5863 11.498 15.4819 11.3156C15.3774 11.1332 15.2168 10.9894 15.0241 10.9056ZM14.9606 11.8366C14.8458 12.7031 14.4193 13.4982 13.7609 14.0731C13.1025 14.648 12.2572 14.9634 11.3831 14.9604C5.46552 14.9604 0.650471 10.1454 0.650471 4.22781C0.647443 3.35371 0.962879 2.50843 1.5378 1.85C2.11273 1.19158 2.90778 0.765092 3.77432 0.650276C3.78731 0.649494 3.80035 0.649494 3.81334 0.650276C3.87751 0.650823 3.94007 0.670336 3.99317 0.706362C4.04627 0.742387 4.08752 0.793313 4.11174 0.852732L5.82815 4.68557C5.84818 4.73241 5.85692 4.78331 5.85367 4.83415C5.85042 4.88499 5.83527 4.93436 5.80945 4.97828L4.08654 7.02723C4.07841 7.0378 4.07028 7.04755 4.06296 7.05894C3.97117 7.1993 3.91711 7.36096 3.906 7.52831C3.89489 7.69565 3.92711 7.86303 3.99954 8.0143C4.7061 9.46076 6.16314 10.9072 7.62586 11.6138C7.77816 11.6857 7.9465 11.7171 8.11449 11.7047C8.28248 11.6923 8.4444 11.6366 8.58448 11.543L8.61457 11.5203L10.6334 9.80307C10.6766 9.77668 10.7255 9.76093 10.7759 9.75712C10.8264 9.7533 10.877 9.76153 10.9237 9.78111L14.7622 11.5016C14.827 11.5285 14.8813 11.5757 14.9171 11.6361C14.9529 11.6965 14.9681 11.7668 14.9606 11.8366Z" />
</svg>
